<?xml version="1.0" encoding="UTF-8" standalone="no"?> <!-- Created with Inkscape (http://www.inkscape.org/) --> <svg xmlns:dc="http://purl.org/dc/elements/1.1/" xmlns:cc="http://creativecommons.org/ns#" xmlns:rdf="http://www.w3.org/1999/02/22-rdf-syntax-ns#" xmlns:svg="http://www.w3.org/2000/svg" xmlns="http://www.w3.org/2000/svg" xmlns:sodipodi="http://sodipodi.sourceforge.net/DTD/sodipodi-0.dtd" xmlns:inkscape="http://www.inkscape.org/namespaces/inkscape" width="836" height="252" viewBox="0 0 836 252" id="svg8" inkscape:version="0.92.2 (5c3e80d, 2017-08-06)" sodipodi:docname="TRESSALLURE.svg"> <defs id="defs2"></defs> <metadata id="metadata5"></metadata> <g inkscape:label="Layer 1" inkscape:groupmode="layer" id="layer1" transform="translate(0,-230.32499)" style="display:inline"> <g id="g469" transform="matrix(0.75347468,0,0,0.75347468,-173.43751,-160.11474)"> <path style="fill:#fdfdfd;stroke-width:1.33333337" d="m 230.58563,690.41644 v -168 h 557.33335 557.33332 v 168 168 H 787.91898 230.58563 Z" id="path473" inkscape:connector-curvature="0"></path> <path style="fill:#c52d2d;stroke-width:1.33333337" d="m 716.6237,761.12516 c -5.62691,-6.21767 1.16206,-27.4178 23.39405,-73.05345 9.46887,-19.43676 13.40964,-26.0476 19.5472,-32.79145 4.22806,-4.64569 10.17736,-11.76708 13.22068,-15.8253 4.0325,-5.37724 7.60816,-8.3937 13.18284,-11.12114 l 7.64952,-3.74256 4.81716,2.57926 c 3.25832,1.74461 5.87571,4.7158 8.08831,9.18167 2.91992,5.89351 3.33133,8.72096 3.83167,26.33334 0.39218,13.80538 1.02693,19.73091 2.1136,19.73091 0.85418,0 3.89738,-1.1952 6.76266,-2.656 4.5069,-2.29775 5.57904,-2.41201 7.94859,-0.84713 1.50645,0.99488 3.30387,3.38734 3.99425,5.31661 1.06576,2.97817 0.67022,4.1184 -2.61997,7.55261 -2.13137,2.22468 -7.36069,6.27742 -11.62071,9.00606 -4.26001,2.72865 -8.04438,6.16118 -8.40973,7.62785 -0.36533,1.46667 -1.50376,9.96807 -2.52984,18.892 -2.28889,19.90699 -3.14307,21.77467 -9.95865,21.77467 -7.84391,0 -8.63942,-1.85847 -7.72292,-18.04246 0.58768,-10.37766 0.3821,-13.94913 -0.80151,-13.92477 -0.87556,0.018 -10.59192,3.87316 -21.59192,8.56695 l -20,8.53416 -6,10.81101 c -3.3,5.94607 -7.70085,12.59093 -9.7797,14.7664 -4.45221,4.65916 -10.00833,5.20623 -13.51558,1.33076 z m 58.06995,-58.20324 c 11.14248,-5.33073 15.9021,-8.31412 16.48554,-10.33333 0.45115,-1.56135 1.14244,-11.53882 1.5362,-22.17215 0.69832,-18.85762 -0.0852,-24.08763 -3.31012,-22.09453 -4.25198,2.62787 -34.29698,58.37078 -32.78233,60.82153 1.15971,1.87645 1.10397,1.89564 18.07071,-6.22152 z m 172.33588,48.69812 c -2.32252,-0.6724 -5.77252,-3.06432 -7.66667,-5.31537 -2.98485,-3.54731 -3.44388,-5.3363 -3.44388,-13.42211 0,-12.59253 4.02216,-24.18567 18.66534,-53.79945 13.99628,-28.30556 16.68609,-32.11985 21.75372,-30.84796 1.95097,0.48966 4.54175,2.40815 5.75729,4.26331 2.16158,3.29897 1.97298,3.86194 -8.59106,25.6455 -16.62159,34.27447 -22.4839,49.71264 -20.67113,54.43665 1.2514,3.26108 16.09078,2.15898 36.60111,-2.71832 28.68415,-6.82101 30.07885,-6.95866 33.92205,-3.3482 3.8002,3.57019 4.1642,7.99396 0.896,10.88999 -5.1465,4.56045 -35.10394,12.18891 -56.14125,14.29601 -15.67056,1.56958 -15.37983,1.57068 -21.08152,-0.08 z m -105.24388,-4.4036 c -4.24455,-4.24455 -4.53334,-5.09688 -4.53334,-13.37988 0,-12.54043 4.78382,-25.86244 20.61903,-57.42012 13.1187,-26.14397 13.46836,-26.67504 17.83903,-27.09378 5.94368,-0.56945 9.81689,2.84321 8.64185,7.61425 -0.47132,1.91374 -4.40857,10.97953 -8.74942,20.1462 -17.74782,37.47836 -23.46936,53.01445 -20.58583,55.89798 2.61119,2.61119 15.53543,1.49566 36.01952,-3.10896 29.97439,-6.73793 30.84305,-6.82846 34.11557,-3.55594 3.2689,3.26889 3.59318,8.41685 0.7117,11.29833 -2.43886,2.43885 -14.61492,6.19585 -34.97658,10.79223 -11.00426,2.48406 -18.63257,3.34302 -29.68881,3.34302 h -14.87939 z m -457.6954,-4.21843 c -1.47892,-1.88014 -2.45171,-4.13014 -2.16175,-5 8.96497,-26.89445 20.9067,-65.31777 22.66148,-72.9149 2.9563,-12.79894 4.94319,-16 9.93115,-16 6.64037,0 8.49597,3.21777 7.64444,13.25606 -0.40796,4.80916 -1.17629,10.24394 -1.70741,12.07727 -0.72295,2.49551 1.95836,0.54001 10.66772,-7.78004 6.48156,-6.19183 14.30652,-12.29583 17.66958,-13.78348 l 6.0362,-2.67009 6.088,3.13299 c 8.4353,4.34095 12.00171,11.16377 9.75511,18.66226 -2.09445,6.99065 -10.14456,15.59432 -23.4088,25.01847 -5.87419,4.17357 -10.68033,8.43101 -10.68033,9.46097 0,1.02995 3.56274,3.69205 7.9172,5.91579 6.66845,3.40542 9.44644,4.04313 17.61266,4.04313 10.80032,0 14.1368,1.85905 14.1368,7.87685 0,11.048 -17.58922,13.32588 -36.34028,4.70623 -5.48348,-2.52069 -12.53034,-6.53308 -15.6597,-8.91641 -3.12938,-2.38334 -6.2691,-4.33334 -6.97716,-4.33334 -0.70807,0 -4.98438,5.55 -9.5029,12.33334 -4.51852,6.78333 -9.43858,13.68333 -10.93348,15.33333 -3.71191,4.09705 -9.34201,3.91227 -12.74853,-0.41843 z m 67.16205,-69.9149 c 1.32732,-1.46667 1.98087,-2.66667 1.45234,-2.66667 -1.90323,0 -6.119,2.78817 -6.119,4.04691 0,2.09226 2.08114,1.47673 4.66666,-1.38024 z m 650.2667,71.73333 c -2.98,-2.97995 -1.6169,-9.6638 8.2388,-40.4 5.4084,-16.86667 10.8684,-35.32131 12.1334,-41.01031 3.2075,-14.42447 9.4679,-18.90501 16.1296,-11.54388 2.3104,2.55297 2.2714,5.57695 -0.265,20.55419 l -0.9032,5.33333 12.731,-12.26008 c 13.348,-12.85434 18.4103,-15.54456 25.5191,-13.56146 4.9689,1.38613 8.4925,4.63117 11.5646,10.65038 2.0412,3.99931 2.225,5.7172 1.0698,10 -1.8439,6.83615 -14.9795,19.74707 -26.8375,26.37842 -4.9393,2.76224 -8.9806,5.47762 -8.9806,6.03418 0,1.63894 4.2396,4.89542 10.6667,8.19312 4.7012,2.41222 8.26,3.09522 16.4407,3.15536 11.4807,0.0844 14.7419,2.09743 13.9491,8.61035 -1.1215,9.21313 -19.9302,12.0534 -34.6143,5.22705 -4.1568,-1.9324 -11.1739,-5.96908 -15.5935,-8.97038 -4.4197,-3.00132 -8.5894,-5.45694 -9.266,-5.45694 -0.6767,0 -4.9256,5.60404 -9.4421,12.45343 -4.5165,6.84939 -9.4191,13.74939 -10.8948,15.33333 -2.934,3.14935 -9.0989,3.82687 -11.6458,1.27991 z m 66.4,-73.53151 c 0,-0.73333 -1.5,0.0759 -3.3333,1.79818 -1.8334,1.72233 -3.3334,3.7315 -3.3334,4.46484 0,0.73333 1.5,-0.0759 3.3334,-1.79818 1.8333,-1.72233 3.3333,-3.7315 3.3333,-4.46484 z m -849.80534,69.19518 c -2.65894,-2.46423 -3.52803,-4.55704 -3.52803,-8.49571 0,-7.86187 5.43422,-27.60977 14.5244,-52.78149 8.75139,-24.23358 9.57197,-28.04258 5.80894,-26.96411 -8.82815,2.5301 -25.38648,4.94351 -29.11643,4.24377 -7.83776,-1.47037 -10.85094,-9.74949 -6.56486,-18.03785 2.27097,-4.39159 2.12781,-4.33509 20.17539,-7.96273 7.42176,-1.49181 17.41888,-3.92462 22.21581,-5.40624 8.23644,-2.54398 8.94757,-3.09409 12.78152,-9.88747 3.06247,-5.42641 5.17324,-7.56107 8.59214,-8.68941 5.61676,-1.8537 10.55967,-0.21722 13.66671,4.52472 2.68806,4.1025 4.58476,4.17048 19.98393,0.71623 15.66532,-3.51395 35.93584,-4.85579 42.1872,-2.79266 6.73728,2.22351 9.68466,5.99081 9.68466,12.37889 0,4.35178 -0.80556,6.08304 -4.27126,9.17964 -4.00221,3.57598 -4.79812,3.76823 -12.63636,3.05233 -8.94904,-0.81735 -28.93424,2.24851 -51.03056,7.82841 l -11.99879,3.03001 -4.79915,11.33333 c -7.21328,17.03438 -19.31451,51.03283 -23.25441,65.33334 -4.84377,17.58125 -5.67594,19.4476 -9.43507,21.16037 -5.13969,2.3418 -9.14276,1.79821 -12.98578,-1.76337 z m 169.33926,-1.07518 c -7.35191,-7.3519 -5.91959,-18.8158 4.69578,-37.584 6.64399,-11.74669 6.70596,-11.96048 4.05839,-14 -1.47875,-1.13914 -4.82219,-3.72573 -7.42987,-5.74798 -9.54866,-7.40498 -7.23854,-18.46999 6.65299,-31.86656 15.13768,-14.5983 24.62267,-18.22828 29.23527,-11.18857 2.991,4.56485 1.56992,7.68676 -6.48187,14.23975 -9.45195,7.69251 -16.93131,14.81036 -16.93131,16.11295 0,0.59375 3.29727,2.53776 7.32727,4.32001 12.84828,5.68212 12.98734,11.31419 0.79727,32.29174 -10.30154,17.72762 -10.72944,19.11408 -5.88106,19.0553 2.0661,-0.0251 8.50086,-1.17001 14.29949,-2.54438 5.79864,-1.37436 11.37082,-2.18116 12.38265,-1.79288 1.01183,0.38826 2.67685,2.32486 3.70007,4.30353 4.60752,8.90997 -7.8936,15.99872 -30.1801,17.1136 -12.40344,0.62049 -13.01391,0.51855 -16.24497,-2.71251 z m 166.81724,1.47624 c -16.00714,-2.2944 -26.35118,-8.38974 -26.35118,-15.52774 0,-4.09136 3.50629,-8.27032 6.93908,-8.27032 1.13434,0 5.4542,1.5 9.59969,3.33333 6.18788,2.73657 9.61911,3.32809 19.16591,3.30405 19.14322,-0.0483 27.34117,-5.59381 27.53402,-18.62574 0.12014,-8.12096 -2.01537,-10.53822 -13.61369,-15.40948 -24.9544,-10.48082 -27.41903,-18.33014 -9.41025,-29.96978 12.91818,-8.34942 27.74674,-13.4975 37.52125,-13.02637 7.32545,0.35308 8.38579,0.7722 10.2126,4.03681 1.93052,3.44993 1.85729,3.824 -1.38292,7.06422 -2.00955,2.00953 -6.68361,4.2689 -11.32688,5.47522 -10.26275,2.66626 -20.77977,7.19484 -20.26884,8.72766 0.22105,0.66317 4.59325,3.44893 9.71597,6.19057 8.14163,4.35732 9.78907,5.90252 13.08768,12.27548 6.83138,13.19832 3.38704,28.29844 -9.07509,39.78564 -3.40609,3.13963 -8.40667,6.63425 -11.11239,7.76584 -6.09013,2.54703 -22.78693,4.08153 -31.23496,2.87061 z m 550.74534,-1.00589 c -8.879,-7.04789 -7.8879,-16.87813 3.8057,-37.74592 3.1704,-5.65789 5.7645,-10.85161 5.7645,-11.5416 0,-0.68997 -2.9386,-3.36567 -6.5302,-5.94596 -12.3814,-8.89516 -11.6031,-18.49875 2.6782,-33.04526 14.0802,-14.34174 25.7396,-19.69621 30.0507,-13.80048 4.3917,6.00605 2.1472,9.66579 -13.1987,21.52043 -4.2167,3.25736 -7.7567,6.4874 -7.8667,7.17788 -0.11,0.69047 -0.26,1.88752 -0.3333,2.66011 -0.073,0.77259 2.8593,3.02259 6.5171,5 12.2046,6.59789 12.1925,10.94345 -0.09,32.44825 -4.1409,7.25008 -7.611,14.2238 -7.7113,15.49719 -0.2674,3.39723 4.0259,3.50836 15.9924,0.41397 10.1963,-2.63664 10.586,-2.64429 13.8253,-0.2715 3.7848,2.77224 4.8262,6.80574 2.7559,10.6741 -2.3579,4.40575 -15.2837,8.42362 -29.4225,9.14574 -11.4594,0.58526 -13.007,0.37682 -16.2368,-2.18695 z m -649.58665,-1.99007 c -9.67986,-4.08122 -14.17654,-8.15013 -14.17654,-12.82788 0,-3.7053 3.56912,-7.97422 6.66704,-7.97422 0.98472,0 5.73748,1.61446 10.56168,3.58772 11.7985,4.82593 25.94637,5.00706 35.35456,0.45264 5.10144,-2.46956 6.94377,-4.3131 9.03518,-9.04108 2.96947,-6.71296 2.44255,-13.32412 -1.33438,-16.74219 -1.28174,-1.15996 -7.49054,-4.26908 -13.79734,-6.90915 -16.49641,-6.90554 -20.83725,-12.86044 -15.41122,-21.1416 5.35877,-8.17853 29.5877,-19.53223 43.90684,-20.5748 10.24075,-0.74562 13.01764,0.62739 13.01764,6.43648 0,4.85184 -2.78736,7.51839 -9.72667,9.30507 -13.96583,3.59584 -22.27333,7.04576 -22.27333,9.24963 0,0.67149 3.6925,3.18898 8.20558,5.59442 4.96675,2.64726 9.70327,6.44104 12,9.61158 3.38037,4.66646 3.79361,6.34381 3.78698,15.37133 -0.004,5.57331 -0.6017,12.27249 -1.32803,14.88708 -1.94217,6.99139 -9.69608,15.24292 -18.26165,19.43367 -6.6476,3.25236 -9.33464,3.73577 -22.96567,4.13158 -13.99997,0.40654 -16.1656,0.14116 -23.26067,-2.85028 z m 486.23455,-4.8149 c -5.7204,-2.30419 -7.7509,-7.58268 -7.6671,-19.93136 0.091,-13.46527 4.0965,-29.98106 10.3468,-42.66624 4.777,-9.69511 6.9241,-11.51026 12.0833,-10.21538 6.5467,1.64311 6.7065,5.79748 0.8919,23.19174 -5.7608,17.23329 -8.0785,31.31157 -5.4248,32.95161 2.4444,1.51075 7.7394,-1.90895 12.0666,-7.79305 2.1314,-2.89814 6.3043,-12.52675 9.2732,-21.39692 8.4662,-25.2938 12.2986,-30.25943 20.1224,-26.07226 2.5834,1.3826 2.8236,2.32112 2.1536,8.41706 -1.5585,14.1787 -13.711,44.58708 -21.535,53.88542 -7.2281,8.59004 -23.1276,13.32846 -32.3109,9.62938 z m 215.987,-70.52183 c -9.458,-5.9398 -10.7084,-16.91241 -2.8513,-25.01895 3.8332,-3.95481 5.1029,-4.44642 11.484,-4.44642 6.1226,0 7.7357,0.56135 11.0035,3.82915 4.8021,4.80205 6.0681,9.67953 4.163,16.03815 -3.1513,10.51807 -14.8328,15.22916 -23.7992,9.59807 z m 12.9353,-3.46537 c 0,-1.1 -1.3125,-3.3125 -2.9167,-4.91667 l -2.9167,-2.91667 -1.1972,3.59164 c -1.8537,5.56112 -3.634,2.88154 -3.6565,-5.50366 -0.011,-4.17339 -0.5468,-8.41904 -1.19,-9.43478 -1.7566,-2.77358 -4.4866,3.11534 -4.4866,9.67798 0,4.13007 0.8066,6.0208 3.5895,8.4146 4.2073,3.61896 12.7742,4.34832 12.7742,1.08756 z m 6.6666,-10.65457 c 0,-6.38558 -0.4207,-7.46341 -3.8725,-9.92131 -3.9346,-2.8017 -11.6493,-3.88654 -10.1275,-1.42412 0.4533,0.73333 1.9222,1.33333 3.2643,1.33333 1.3422,0 3.8568,1.15241 5.588,2.56091 3.0642,2.49293 3.0872,2.66407 0.8686,6.44734 -2.0588,3.51062 -2.0822,4.16766 -0.2421,6.79473 2.9905,4.26962 4.5212,2.30909 4.5212,-5.79088 z m -8.9295,-3.99384 c 0.1446,-0.72329 -0.7871,-1.51729 -2.0705,-1.76443 -1.4594,-0.28107 -2.3333,0.37289 -2.3333,1.74617 0,2.31972 3.9404,2.33606 4.4038,0.0183 z" id="path471" inkscape:connector-curvature="0"></path> </g> </g> </svg> 